<svg style="background:#fff" xmlns="http://www.w3.org/2000/svg" viewBox="-100 -100 700 750" role="img" aria-label="Göteborgs kommunfullmäktige — 81 ledamöter">
  <defs>
    <pattern id="smallGrid" width="10" height="10" patternUnits="userSpaceOnUse">
      <path d="M 10 0 L 0 0 0 10" fill="none" stroke="lightgray" stroke-width="0.5"/>
    </pattern>
    <pattern id="grid" width="100" height="100" patternUnits="userSpaceOnUse">
      <rect width="100" height="100" fill="url(#smallGrid)"/>
      <path d="M 100 0 L 0 0 0 100" fill="none" stroke="gray" stroke-width="1"/>
    </pattern>
      <style>
      @import url("../packages/ui/src/tokens/css/global.css");
      @import url("../packages/ui/src/tokens/css/svg.css");
    </style>

    <clipPath id="seat">
      <rect x="0" y="0" width="60" height="40" rx="8"/>
    </clipPath>

    <symbol id="mic">
      <svg xmlns="http://www.w3.org/2000/svg" width="24" height="24" viewBox="0 0 24 24" fill="none" stroke="var(--system-white)" stroke-width="1" stroke-linecap="round" stroke-linejoin="round" class="lucide lucide-mic-vocal-icon lucide-mic-vocal"><path d="m11 7.601-5.994 8.19a1 1 0 0 0 .1 1.298l.817.818a1 1 0 0 0 1.314.087L15.09 12"/><path d="M16.5 21.174C15.5 20.5 14.372 20 13 20c-2.058 0-3.928 2.356-6 2-2.072-.356-2.775-3.369-1.5-4.5"/><circle cx="16" cy="7" r="5"/></svg>
    </symbol>

    <symbol id="motion">
      <svg xmlns="http://www.w3.org/2000/svg" width="24" height="24" viewBox="0 0 24 24" fill="none" stroke="var(--system-white)" stroke-width="1" stroke-linecap="round" stroke-linejoin="round" class="lucide lucide-file-text-icon lucide-file-text"><path d="M6 22a2 2 0 0 1-2-2V4a2 2 0 0 1 2-2h8a2.4 2.4 0 0 1 1.704.706l3.588 3.588A2.4 2.4 0 0 1 20 8v12a2 2 0 0 1-2 2z"/><path d="M14 2v5a1 1 0 0 0 1 1h5"/><path d="M10 9H8"/><path d="M16 13H8"/><path d="M16 17H8"/></svg>
    </symbol>
  </defs>
  <rect width="100%" height="100%" fill="url(#grid)"/>

  <svg x="570" y="0"> <!-- speaker -->
    <svg x="0" y="0">
      <g clip-path="url(#seat)">
        <rect x="0" y="0" width="100%" height="100%" class="vote"/>
        <text x="12" y="16.5" class="inverse">1</text>
        <rect x="23" y="3" width="50" height="34" class="shadow" rx="17" transform="rotate(43, 40, 20)"/>
        <circle cx="40" cy="20" r="17" class="seat parti-c" />
        <text x="40" y="22" class="h2 inverse">C</text>
      </g>
    </svg>
  </svg>
  <svg x="490" y="20">
    <svg x="0" y="0">
      <g clip-path="url(#seat)">
        <rect x="0" y="0" width="100%" height="100%" class="vote"/>
        <text x="12" y="16.5" class="inverse">2</text>
        <rect x="23" y="3" width="50" height="34" class="shadow" rx="17" transform="rotate(43, 40, 20)"/>
        <circle cx="40" cy="20" r="17" class="seat parti-c" />
        <text x="40" y="22" class="h2 inverse">C</text>
      </g>
    </svg>
  </svg>
  <svg x="420" y="20">
    <svg x="0" y="0">
      <g clip-path="url(#seat)">
        <rect x="0" y="0" width="100%" height="100%" class="vote"/>
        <text x="12" y="16.5" class="inverse">3</text>
        <rect x="23" y="3" width="50" height="34" class="shadow" rx="17" transform="rotate(43, 40, 20)"/>
        <circle cx="40" cy="20" r="17" class="seat parti-c" />
        <text x="40" y="22" class="h2 inverse">C</text>
      </g>
    </svg>
  </svg>
  <svg x="350" y="20">
    <svg x="0" y="0">
      <g clip-path="url(#seat)">
        <rect x="0" y="0" width="100%" height="100%" class="vote"/>
        <text x="12" y="16.5" class="inverse">4</text>
        <rect x="23" y="3" width="50" height="34" class="shadow" rx="17" transform="rotate(43, 40, 20)"/>
        <circle cx="40" cy="20" r="17" class="seat parti-c" />
        <text x="40" y="22" class="h2 inverse">C</text>
      </g>
    </svg>
  </svg>
  <circle cx="600" cy="0" r="10"/> <!-- center ctage -->
  <line x1="560" x2="560" y1="0" y2="600" stroke="black" stroke-width="1"/>
  <line x1="640" x2="640" y1="0" y2="600" stroke="black" stroke-width="1"/>
  <circle cx="600" cy="0" r="250" fill="none" stroke="blue" stroke-width="1"/>

  <!-- first line -->
  <svg x="500" y="250">
    <svg x="0" y="0">
      <g clip-path="url(#seat)">
        <rect x="0" y="0" width="100%" height="100%" class="vote"/>
        <text x="12" y="16.5" class="inverse">7</text>
        <rect x="23" y="3" width="50" height="34" class="shadow" rx="17" transform="rotate(43, 40, 20)"/>
        <circle cx="40" cy="20" r="17" class="seat parti-c" />
        <text x="40" y="22" class="h2 inverse">C</text>
      </g>
    </svg>
  </svg>
  <svg x="430" y="230">
    <svg x="0" y="0">
      <g clip-path="url(#seat)">
        <rect x="0" y="0" width="100%" height="100%" class="vote"/>
        <text x="12" y="16.5" class="inverse">6</text>
        <rect x="23" y="3" width="50" height="34" class="shadow" rx="17" transform="rotate(43, 40, 20)"/>
        <circle cx="40" cy="20" r="17" class="seat parti-c" />
        <text x="40" y="22" class="h2 inverse">C</text>
      </g>
    </svg>
  </svg>
  <svg x="360" y="190">
    <svg x="0" y="0">
      <g clip-path="url(#seat)">
        <rect x="0" y="0" width="100%" height="100%" class="vote"/>
        <text x="12" y="16.5" class="inverse">5</text>
        <rect x="23" y="3" width="50" height="34" class="shadow" rx="17" transform="rotate(43, 40, 20)"/>
        <circle cx="40" cy="20" r="17" class="seat parti-c" />
        <text x="40" y="22" class="h2 inverse">C</text>
      </g>
    </svg>
  </svg>

  <!-- second line -->
  <svg x="500" y="350">
    <svg x="0" y="0">
      <g clip-path="url(#seat)">
        <rect x="0" y="0" width="100%" height="100%" class="vote"/>
        <text x="12" y="16.5" class="inverse">18</text>
        <rect x="23" y="3" width="50" height="34" class="shadow" rx="17" transform="rotate(43, 40, 20)"/>
        <circle cx="40" cy="20" r="17" class="seat parti-c" />
        <text x="40" y="22" class="h2 inverse">C</text>
      </g>
    </svg>
  </svg>
  <svg x="430" y="340">
    <svg x="0" y="0">
      <g clip-path="url(#seat)">
        <rect x="0" y="0" width="100%" height="100%" class="vote"/>
        <text x="12" y="16.5" class="inverse">17</text>
        <rect x="23" y="3" width="50" height="34" class="shadow" rx="17" transform="rotate(43, 40, 20)"/>
        <circle cx="40" cy="20" r="17" class="seat parti-c" />
        <text x="40" y="22" class="h2 inverse">C</text>
      </g>
    </svg>
  </svg>
  <svg x="360" y="320">
    <svg x="0" y="0">
      <g clip-path="url(#seat)">
        <rect x="0" y="0" width="100%" height="100%" class="vote"/>
        <text x="12" y="16.5" class="inverse">16</text>
        <rect x="23" y="3" width="50" height="34" class="shadow" rx="17" transform="rotate(43, 40, 20)"/>
        <circle cx="40" cy="20" r="17" class="seat parti-c" />
        <text x="40" y="22" class="h2 inverse">C</text>
      </g>
    </svg>
  </svg>
  <svg x="290" y="290">
    <svg x="0" y="0">
      <g clip-path="url(#seat)">
        <rect x="0" y="0" width="100%" height="100%" class="vote"/>
        <text x="12" y="16.5" class="inverse">15</text>
        <rect x="23" y="3" width="50" height="34" class="shadow" rx="17" transform="rotate(43, 40, 20)"/>
        <circle cx="40" cy="20" r="17" class="seat parti-c" />
        <text x="40" y="22" class="h2 inverse">C</text>
      </g>
    </svg>
  </svg>
  <svg x="220" y="250">
    <svg x="0" y="0">
      <g clip-path="url(#seat)">
        <rect x="0" y="0" width="100%" height="100%" class="vote"/>
        <text x="12" y="16.5" class="inverse">14</text>
        <rect x="23" y="3" width="50" height="34" class="shadow" rx="17" transform="rotate(43, 40, 20)"/>
        <circle cx="40" cy="20" r="17" class="seat parti-c" />
        <text x="40" y="22" class="h2 inverse">C</text>
      </g>
    </svg>
  </svg>
  <svg x="170" y="200">
    <svg x="0" y="0">
      <g clip-path="url(#seat)">
        <rect x="0" y="0" width="100%" height="100%" class="vote"/>
        <text x="12" y="16.5" class="inverse">13</text>
        <rect x="23" y="3" width="50" height="34" class="shadow" rx="17" transform="rotate(43, 40, 20)"/>
        <circle cx="40" cy="20" r="17" class="seat parti-c" />
        <text x="40" y="22" class="h2 inverse">C</text>
      </g>
    </svg>
  </svg>
  <svg x="130" y="150">
    <svg x="0" y="0">
      <g clip-path="url(#seat)">
        <rect x="0" y="0" width="100%" height="100%" class="vote"/>
        <text x="12" y="16.5" class="inverse">12</text>
        <rect x="23" y="3" width="50" height="34" class="shadow" rx="17" transform="rotate(43, 40, 20)"/>
        <circle cx="40" cy="20" r="17" class="seat parti-c" />
        <text x="40" y="22" class="h2 inverse">C</text>
      </g>
    </svg>
  </svg>
  <svg x="100" y="100">
    <svg x="0" y="0">
      <g clip-path="url(#seat)">
        <rect x="0" y="0" width="100%" height="100%" class="vote"/>
        <text x="12" y="16.5" class="inverse">11</text>
        <rect x="23" y="3" width="50" height="34" class="shadow" rx="17" transform="rotate(43, 40, 20)"/>
        <circle cx="40" cy="20" r="17" class="seat parti-c" />
        <text x="40" y="22" class="h2 inverse">C</text>
      </g>
    </svg>
  </svg>

  <!-- the big line -->
  <svg x="500" y="450">
    <svg x="0" y="0">
      <g clip-path="url(#seat)">
        <rect x="0" y="0" width="100%" height="100%" class="vote"/>
        <text x="12" y="16.5" class="inverse">36</text>
        <rect x="23" y="3" width="50" height="34" class="shadow" rx="17" transform="rotate(43, 40, 20)"/>
        <circle cx="40" cy="20" r="17" class="seat parti-c" />
        <text x="40" y="22" class="h2 inverse">C</text>
      </g>
    </svg>
  </svg>
  <svg x="430" y="440">
    <svg x="0" y="0">
      <g clip-path="url(#seat)">
        <rect x="0" y="0" width="100%" height="100%" class="vote"/>
        <text x="12" y="16.5" class="inverse">35</text>
        <rect x="23" y="3" width="50" height="34" class="shadow" rx="17" transform="rotate(43, 40, 20)"/>
        <circle cx="40" cy="20" r="17" class="seat parti-c" />
        <text x="40" y="22" class="h2 inverse">C</text>
      </g>
    </svg>
  </svg>
  <svg x="360" y="420">
    <svg x="0" y="0">
      <g clip-path="url(#seat)">
        <rect x="0" y="0" width="100%" height="100%" class="vote"/>
        <text x="12" y="16.5" class="inverse">34</text>
        <rect x="23" y="3" width="50" height="34" class="shadow" rx="17" transform="rotate(43, 40, 20)"/>
        <circle cx="40" cy="20" r="17" class="seat parti-c" />
        <text x="40" y="22" class="h2 inverse">C</text>
      </g>
    </svg>
  </svg>
  <svg x="290" y="400">
    <svg x="0" y="0">
      <g clip-path="url(#seat)">
        <rect x="0" y="0" width="100%" height="100%" class="vote"/>
        <text x="12" y="16.5" class="inverse">33</text>
        <rect x="23" y="3" width="50" height="34" class="shadow" rx="17" transform="rotate(43, 40, 20)"/>
        <circle cx="40" cy="20" r="17" class="seat parti-c" />
        <text x="40" y="22" class="h2 inverse">C</text>
      </g>
    </svg>
  </svg>
  <svg x="220" y="370">
    <svg x="0" y="0">
      <g clip-path="url(#seat)">
        <rect x="0" y="0" width="100%" height="100%" class="vote"/>
        <text x="12" y="16.5" class="inverse">32</text>
        <rect x="23" y="3" width="50" height="34" class="shadow" rx="17" transform="rotate(43, 40, 20)"/>
        <circle cx="40" cy="20" r="17" class="seat parti-c" />
        <text x="40" y="22" class="h2 inverse">C</text>
      </g>
    </svg>
  </svg>
  <svg x="150" y="340">
    <svg x="0" y="0">
      <g clip-path="url(#seat)">
        <rect x="0" y="0" width="100%" height="100%" class="vote"/>
        <text x="12" y="16.5" class="inverse">31</text>
        <rect x="23" y="3" width="50" height="34" class="shadow" rx="17" transform="rotate(43, 40, 20)"/>
        <circle cx="40" cy="20" r="17" class="seat parti-c" />
        <text x="40" y="22" class="h2 inverse">C</text>
      </g>
    </svg>
  </svg>
  <svg x="90" y="290">
    <svg x="0" y="0">
      <g clip-path="url(#seat)">
        <rect x="0" y="0" width="100%" height="100%" class="vote"/>
        <text x="12" y="16.5" class="inverse">30</text>
        <rect x="23" y="3" width="50" height="34" class="shadow" rx="17" transform="rotate(43, 40, 20)"/>
        <circle cx="40" cy="20" r="17" class="seat parti-c" />
        <text x="40" y="22" class="h2 inverse">C</text>
      </g>
    </svg>
  </svg>
  <svg x="40" y="240">
    <svg x="0" y="0">
      <g clip-path="url(#seat)">
        <rect x="0" y="0" width="100%" height="100%" class="vote"/>
        <text x="12" y="16.5" class="inverse">29</text>
        <rect x="23" y="3" width="50" height="34" class="shadow" rx="17" transform="rotate(43, 40, 20)"/>
        <circle cx="40" cy="20" r="17" class="seat parti-c" />
        <text x="40" y="22" class="h2 inverse">C</text>
      </g>
    </svg>
  </svg>
  <svg x="0" y="190">
    <svg x="0" y="0">
      <g clip-path="url(#seat)">
        <rect x="0" y="0" width="100%" height="100%" class="vote"/>
        <text x="12" y="16.5" class="inverse">28</text>
        <rect x="23" y="3" width="50" height="34" class="shadow" rx="17" transform="rotate(43, 40, 20)"/>
        <circle cx="40" cy="20" r="17" class="seat parti-c" />
        <text x="40" y="22" class="h2 inverse">C</text>
      </g>
    </svg>
  </svg>
  <svg x="-30" y="140">
    <svg x="0" y="0">
      <g clip-path="url(#seat)">
        <rect x="0" y="0" width="100%" height="100%" class="vote"/>
        <text x="12" y="16.5" class="inverse">27</text>
        <rect x="23" y="3" width="50" height="34" class="shadow" rx="17" transform="rotate(43, 40, 20)"/>
        <circle cx="40" cy="20" r="17" class="seat parti-c" />
        <text x="40" y="22" class="h2 inverse">C</text>
      </g>
    </svg>
  </svg>
  <svg x="-50" y="90">
    <svg x="0" y="0">
      <g clip-path="url(#seat)">
        <rect x="0" y="0" width="100%" height="100%" class="vote"/>
        <text x="12" y="16.5" class="inverse">26</text>
        <rect x="23" y="3" width="50" height="34" class="shadow" rx="17" transform="rotate(43, 40, 20)"/>
        <circle cx="40" cy="20" r="17" class="seat parti-c" />
        <text x="40" y="22" class="h2 inverse">C</text>
      </g>
    </svg>
  </svg>

<!-- third line -->


</svg>